<svg width="57" height="10" viewBox="0 0 57 10" fill="none" xmlns="http://www.w3.org/2000/svg">
<path d="M5.23481 0.687012L6.63187 3.51714L9.75721 3.9709L7.49607 6.1673L8.02893 9.27839L5.23481 7.8093L2.44777 9.27839L2.98074 6.1673L0.719482 3.9709L3.83764 3.51714L5.23481 0.687012Z" fill="#F4E319"/>
<path d="M8.02895 9.99871C7.91449 9.99871 7.79925 9.97131 7.69407 9.91585L5.2355 8.6232L2.7841 9.91585C2.54214 10.044 2.24682 10.0217 2.02508 9.86182C1.80323 9.70052 1.69242 9.42685 1.73849 9.15683L2.20727 6.42028L0.218242 4.48738C0.0216926 4.2958 -0.0496794 4.00987 0.035282 3.74924C0.119581 3.4885 0.344966 3.29847 0.616423 3.25814L3.36016 2.85919L4.59017 0.368903C4.8329 -0.122968 5.63865 -0.122968 5.88138 0.368903L7.11139 2.85919L9.86164 3.25814C10.1331 3.2977 10.3586 3.48784 10.4436 3.74924C10.5285 4.00998 10.4573 4.29657 10.2606 4.48738L8.27157 6.42028L8.74035 9.15683C8.78642 9.42685 8.6755 9.69986 8.45376 9.86182C8.32703 9.95187 8.17799 9.99871 8.02895 9.99871ZM5.23483 7.08925C5.35007 7.08925 5.4653 7.11665 5.56971 7.17212L7.07261 7.96207L6.78601 6.28991C6.74569 6.0559 6.82413 5.81748 6.99416 5.65187L8.20616 4.47368L6.52826 4.23029C6.29348 4.19648 6.09108 4.04876 5.98601 3.83641L5.23494 2.31407L4.48388 3.83641C4.3787 4.04887 4.17641 4.19648 3.94229 4.23029L2.2708 4.47302L3.48357 5.65043C3.65349 5.81605 3.73204 6.05513 3.69172 6.28925L3.40512 7.95931L4.90018 7.17145C5.00437 7.11665 5.1196 7.08925 5.23483 7.08925Z" fill="#F4E319"/>
<path d="M16.7572 0.687012L18.1542 3.51714L21.2797 3.9709L19.0184 6.1673L19.5513 9.27839L16.7572 7.8093L13.9702 9.27839L14.5031 6.1673L12.2418 3.9709L15.3601 3.51714L16.7572 0.687012Z" fill="#F4E319"/>
<path d="M19.5512 9.99871C19.4367 9.99871 19.3215 9.97131 19.2163 9.91585L16.7577 8.6232L14.3063 9.91585C14.0644 10.044 13.769 10.0217 13.5473 9.86182C13.3254 9.70052 13.2146 9.42685 13.2607 9.15683L13.7295 6.42028L11.7405 4.48738C11.5439 4.2958 11.4725 4.00987 11.5575 3.74924C11.6418 3.4885 11.8672 3.29847 12.1386 3.25814L14.8824 2.85919L16.1124 0.368903C16.3551 -0.122968 17.1609 -0.122968 17.4036 0.368903L18.6336 2.85919L21.3839 3.25814C21.6553 3.2977 21.8808 3.48784 21.9658 3.74924C22.0507 4.00998 21.9795 4.29657 21.7828 4.48738L19.7938 6.42028L20.2626 9.15683C20.3086 9.42685 20.1977 9.69986 19.976 9.86182C19.8494 9.95187 19.7002 9.99871 19.5512 9.99871ZM16.7571 7.08925C16.8723 7.08925 16.9875 7.11665 17.0919 7.17212L18.5948 7.96207L18.3082 6.28991C18.2679 6.0559 18.3463 5.81748 18.5164 5.65187L19.7284 4.47368L18.0505 4.23029C17.8157 4.19648 17.6133 4.04876 17.5082 3.83641L16.7572 2.31473L16.0061 3.83641C15.9009 4.04887 15.6986 4.19648 15.4645 4.23029L13.793 4.47302L15.0058 5.65043C15.1757 5.81605 15.2543 6.05513 15.2139 6.28925L14.9273 7.95931L16.4224 7.17145C16.5266 7.11665 16.6418 7.08925 16.7571 7.08925Z" fill="#F4E319"/>
<path d="M28.2794 0.687012L29.6764 3.51714L32.8019 3.9709L30.5406 6.1673L31.0735 9.27839L28.2794 7.8093L25.4924 9.27839L26.0253 6.1673L23.764 3.9709L26.8823 3.51714L28.2794 0.687012Z" fill="#F4E319"/>
<path d="M25.4925 9.9986C25.3434 9.9986 25.195 9.95253 25.0698 9.86182C24.8479 9.70052 24.7371 9.42685 24.7832 9.15683L25.2519 6.42028L23.2629 4.48738C23.0664 4.2958 22.995 4.00987 23.08 3.74924C23.1643 3.4885 23.3896 3.29847 23.6611 3.25814L26.4048 2.85919L27.6348 0.368903C27.8776 -0.122968 28.6833 -0.122968 28.9261 0.368903L30.1553 2.85919L32.9055 3.25814C33.177 3.29781 33.4024 3.48784 33.4875 3.74924C33.5718 4.00998 33.5012 4.29657 33.3045 4.48738L31.3147 6.42028L31.7835 9.15683C31.8296 9.42685 31.7186 9.69985 31.4975 9.86116C31.275 10.0232 30.9819 10.0441 30.7385 9.91585L28.28 8.6232L25.8286 9.91585C25.7229 9.9712 25.6077 9.9986 25.4925 9.9986ZM28.2794 7.08914C28.3946 7.08914 28.5099 7.11654 28.6143 7.172L30.1172 7.96196L29.8312 6.2898C29.7909 6.05579 29.8687 5.81737 30.0386 5.65176L31.2514 4.47357L29.5735 4.23017C29.3387 4.19637 29.1363 4.04865 29.0312 3.8363L28.2802 2.31462L27.5291 3.8363C27.4239 4.04876 27.2216 4.19637 26.9875 4.23017L25.316 4.4729L26.5288 5.65032C26.6987 5.81593 26.7773 6.05502 26.7369 6.28913L26.4504 7.9592L27.9454 7.17134C28.0489 7.11654 28.1642 7.08914 28.2794 7.08914Z" fill="#F4E319"/>
<path d="M37.0147 9.9986C36.8657 9.9986 36.7173 9.95253 36.592 9.86182C36.3695 9.70052 36.2585 9.42762 36.3054 9.15683L36.7735 6.42028L34.7837 4.48738C34.5878 4.2958 34.5166 4.00987 34.6008 3.74924C34.6849 3.48861 34.9111 3.29847 35.1827 3.25814L37.9264 2.85919L39.1556 0.368903C39.3976 -0.122968 40.2049 -0.122968 40.4468 0.368903L41.6769 2.85985L44.4271 3.25881C44.6986 3.29847 44.9241 3.4885 45.009 3.7499C45.0933 4.01064 45.0227 4.29724 44.8261 4.48804L42.8363 6.42094L43.305 9.1575C43.3511 9.42752 43.2402 9.70052 43.0191 9.86182C42.7958 10.0239 42.5028 10.0448 42.2608 9.91651L39.8015 8.62386L37.3509 9.91651C37.2452 9.9712 37.1299 9.9986 37.0147 9.9986ZM39.8016 7.08914C39.9169 7.08914 40.0313 7.11654 40.1365 7.172L41.6402 7.96196L41.3542 6.2898C41.3139 6.05579 41.3917 5.81737 41.5616 5.65176L42.7744 4.47357L41.0965 4.23017C40.8617 4.19637 40.6593 4.04865 40.5542 3.8363L39.8024 2.31396L39.0513 3.83564C38.9462 4.0481 38.7439 4.1957 38.5091 4.22951L36.8384 4.47224L38.0511 5.65043C38.2211 5.81538 38.2988 6.05447 38.2585 6.28847L37.9734 7.95853L39.467 7.17068C39.5705 7.11654 39.6857 7.08914 39.8016 7.08914Z" fill="#F4E319"/>
<path d="M48.537 9.9986C48.388 9.9986 48.2396 9.95253 48.1143 9.86182C47.8918 9.70052 47.7809 9.42762 47.8277 9.15683L48.2958 6.42028L46.306 4.48738C46.1102 4.2958 46.0389 4.00987 46.1231 3.74924C46.2074 3.4885 46.4334 3.29847 46.705 3.25814L49.4487 2.85919L50.678 0.368903C50.9199 -0.122968 51.7272 -0.122968 51.9692 0.368903L53.1992 2.85985L55.9495 3.25881C56.2209 3.29847 56.4464 3.4885 56.5314 3.7499C56.6157 4.01064 56.5451 4.29724 56.3484 4.48804L54.3586 6.42094L54.8274 9.1575C54.8735 9.42752 54.7625 9.70052 54.5415 9.86182C54.3189 10.0239 54.0244 10.0448 53.7831 9.91651L51.3239 8.62386L48.8732 9.91651C48.7675 9.9712 48.6523 9.9986 48.537 9.9986ZM51.3241 7.08914C51.4393 7.08914 51.5538 7.11654 51.659 7.172L53.1626 7.96196L52.8767 6.2898C52.8364 6.05579 52.9141 5.81737 53.0841 5.65176L54.2968 4.47357L52.6189 4.23017C52.3842 4.19637 52.1818 4.04865 52.0767 3.8363L51.3249 2.31396L50.5738 3.83564C50.4686 4.0481 50.2663 4.1957 50.0315 4.22951L48.3608 4.47224L49.5736 5.65043C49.7435 5.81538 49.8213 6.05447 49.781 6.28847L49.4958 7.95853L50.9894 7.17068C51.0928 7.11654 51.2081 7.08914 51.3241 7.08914Z" fill="#F4E319"/>
</svg>
