<svg width="24" height="24" viewBox="0 0 24 24" fill="none" xmlns="http://www.w3.org/2000/svg">
<path d="M2.10059 23.9998C2.10059 23.9837 5.04848 21.4814 12 21.4814C18.7523 21.4814 21.8994 23.9837 21.8994 23.9998H2.10059Z" fill="#F6CC90"/>
<path d="M12 21.4814C11.5688 21.4814 11.153 21.4911 10.7523 21.5092C16.6679 21.7824 19.4366 23.9847 19.4366 23.9998H21.8994C21.8994 23.9837 18.7523 21.4814 12 21.4814Z" fill="#F0C17F"/>
<path d="M16.4954 4.05832C15.6899 6.39467 13.5195 6.79673 13.5195 6.79673C13.5195 6.79673 12.0812 5.07477 12.8658 2.79911C13.6921 0.402012 15.8626 0 15.8626 0C15.8626 0 17.3113 1.69159 16.4954 4.05832Z" fill="#C5E866"/>
<path d="M15.8626 0C15.8626 0 15.289 0.106334 14.6193 0.535243C14.9873 1.214 15.4434 2.48731 14.9019 4.05827C14.5122 5.18849 13.8032 5.866 13.1749 6.26434C13.3592 6.60459 13.5195 6.79664 13.5195 6.79664C13.5195 6.79664 15.69 6.39462 16.4954 4.05822C17.3113 1.69159 15.8626 0 15.8626 0V0Z" fill="#B2D94B"/>
<path d="M11.9059 12.328C11.8701 12.328 11.8336 12.3226 11.7976 12.3113C11.6068 12.2516 11.5005 12.0484 11.5602 11.8575C11.6489 11.5741 13.7452 4.88666 14.7665 2.38226C14.842 2.19706 15.0533 2.10811 15.2386 2.18364C15.4238 2.25916 15.5127 2.47053 15.4371 2.65577C14.4274 5.13202 12.2731 12.0048 12.2514 12.074C12.2029 12.2288 12.0601 12.328 11.9059 12.328Z" fill="#6C8A13"/>
<path d="M11.9058 23.0428C11.7057 23.0428 11.5436 22.8807 11.5436 22.6806V11.7943C11.5436 11.5943 11.7057 11.4321 11.9058 11.4321C12.1058 11.4321 12.2679 11.5943 12.2679 11.7943V22.6806C12.2679 22.8807 12.1058 23.0428 11.9058 23.0428Z" fill="#6C8A13"/>
<path d="M14.3313 15.0422C13.0082 15.2302 12.0341 14.9599 12.0341 14.9599C12.0341 14.9599 11.1916 11.5794 13.8243 8.93835C16.5974 6.15643 19.8971 7.072 19.8971 7.072C19.8971 7.072 20.6209 9.83127 18.7029 12.3954" fill="#9CC042"/>
<path d="M19.8971 7.07188C19.8971 7.07188 19.0123 6.82652 17.7741 6.97603C18.1085 7.01794 18.3035 7.07188 18.3035 7.07188C18.3035 7.07188 19.0273 9.83116 17.1093 12.3953L12.7377 15.0421C12.6893 15.0489 12.6415 15.055 12.5941 15.0607C13.0066 15.1115 13.6181 15.1434 14.3313 15.0421L18.7028 12.3953C20.6209 9.83111 19.8971 7.07188 19.8971 7.07188Z" fill="#85AA18"/>
<path d="M8.87842 13.2691C11.227 15.1201 10.8263 17.7734 10.8263 17.7734C10.8263 17.7734 8.2904 18.7438 6.00282 16.9408C3.59321 15.0417 3.99396 12.3885 3.99396 12.3885C3.99396 12.3885 6.49933 11.394 8.87842 13.2691Z" fill="#C5E866"/>
<path d="M6.18525 9.45147C8.5499 12.4643 11.9343 11.9462 11.9343 11.9462C11.9343 11.9462 13.169 8.68921 10.8658 5.7546C8.4397 2.66352 5.05531 3.18158 5.05531 3.18158C5.05531 3.18158 3.78988 6.39951 6.18525 9.45147Z" fill="#9CC042"/>
<path d="M11.9058 22.1756C11.7057 22.1756 11.5436 22.0134 11.5436 21.8134C11.5436 19.7093 10.766 17.9128 9.23241 16.4739C8.08403 15.3964 6.93468 14.9415 6.92324 14.9371C6.73684 14.8645 6.64456 14.6545 6.71719 14.4682C6.78972 14.2818 6.99968 14.1895 7.18608 14.2621C7.23828 14.2824 8.47856 14.7733 9.72805 15.9457C10.8868 17.0329 12.268 18.9334 12.268 21.8135C12.2679 22.0134 12.1058 22.1756 11.9058 22.1756Z" fill="#6C8A13"/>
<path d="M18.0914 16.4079C16.0623 17.8108 14.0765 16.8441 14.0765 16.8441C14.0765 16.8441 13.9355 14.6021 15.9119 13.2356C17.9937 11.7963 19.9794 12.763 19.9794 12.763C19.9794 12.763 20.1468 14.9868 18.0914 16.4079Z" fill="#C5E866"/>
<path d="M19.9793 12.7628C19.9793 12.7628 18.9443 12.2591 17.5853 12.5206C18.0811 12.6145 18.3858 12.7628 18.3858 12.7628C18.3858 12.7628 18.5531 14.9866 16.4977 16.4077C15.9475 16.7881 15.4007 16.994 14.8956 17.0925C15.6618 17.2379 16.8686 17.2531 18.0913 16.4077C20.1468 14.9866 19.9793 12.7628 19.9793 12.7628Z" fill="#B2D94B"/>
<path d="M11.9055 22.1755C11.7133 22.1755 11.5531 22.0244 11.544 21.8303C11.5416 21.7774 11.4906 20.5161 12.1258 18.9567C12.7101 17.5221 14.0111 15.5531 16.8908 14.3194C17.0747 14.2406 17.2876 14.3258 17.3663 14.5097C17.4451 14.6935 17.3599 14.9064 17.1761 14.9852C15.0456 15.8979 13.5721 17.3261 12.7967 19.2299C12.221 20.6431 12.2671 21.785 12.2677 21.7964C12.277 21.9962 12.1227 22.1658 11.9229 22.1751C11.917 22.1754 11.9112 22.1755 11.9055 22.1755Z" fill="#6C8A13"/>
<path d="M11.783 12.1586C11.6511 12.1586 11.5239 12.0862 11.4599 11.9605C10.0749 9.23717 7.73428 6.86262 7.71076 6.83891C7.5699 6.69694 7.57082 6.46761 7.71279 6.32675C7.85481 6.18584 8.08404 6.18681 8.22495 6.32878C8.32409 6.42869 10.6695 8.8086 12.1056 11.6321C12.1962 11.8104 12.1252 12.0284 11.9469 12.1191C11.8943 12.1459 11.8382 12.1586 11.783 12.1586Z" fill="#6C8A13"/>
<path d="M12.0197 15.3051C11.95 15.3051 11.8795 15.285 11.8174 15.243C11.6516 15.1311 11.608 14.906 11.7199 14.7402C11.8196 14.5924 14.1966 11.1025 17.0886 9.41982C17.2615 9.31919 17.4831 9.37781 17.5837 9.55069C17.6843 9.72361 17.6257 9.94526 17.4528 10.0459C14.7027 11.646 12.3437 15.1107 12.3202 15.1455C12.2502 15.2492 12.136 15.3051 12.0197 15.3051Z" fill="#6C8A13"/>
</svg>
