<svg width="23" height="7" viewBox="0 0 23 7" fill="none" xmlns="http://www.w3.org/2000/svg">
<path d="M0.926063 1.044H2.66906C2.9864 1.044 3.24773 1.08833 3.45306 1.177C3.6584 1.261 3.8194 1.37067 3.93606 1.506C4.0574 1.63667 4.1414 1.786 4.18806 1.954C4.23473 2.11733 4.25806 2.276 4.25806 2.43C4.25806 2.584 4.23473 2.745 4.18806 2.913C4.1414 3.07633 4.0574 3.22567 3.93606 3.361C3.8194 3.49167 3.6584 3.60133 3.45306 3.69C3.24773 3.774 2.9864 3.816 2.66906 3.816H1.59806V6H0.926063V1.044ZM1.59806 3.228H2.48006C2.61073 3.228 2.73906 3.21867 2.86506 3.2C2.99573 3.17667 3.11006 3.137 3.20806 3.081C3.31073 3.025 3.3924 2.94567 3.45306 2.843C3.51373 2.73567 3.54406 2.598 3.54406 2.43C3.54406 2.262 3.51373 2.12667 3.45306 2.024C3.3924 1.91667 3.31073 1.835 3.20806 1.779C3.11006 1.723 2.99573 1.68567 2.86506 1.667C2.73906 1.64367 2.61073 1.632 2.48006 1.632H1.59806V3.228ZM4.96348 0.708H5.59348V6H4.96348V0.708ZM6.61012 3.088C6.78745 2.92467 6.99278 2.80333 7.22612 2.724C7.45945 2.64 7.69278 2.598 7.92612 2.598C8.16878 2.598 8.37645 2.62833 8.54912 2.689C8.72645 2.74967 8.87112 2.83133 8.98312 2.934C9.09512 3.03667 9.17678 3.15567 9.22812 3.291C9.28412 3.42167 9.31212 3.55933 9.31212 3.704V5.398C9.31212 5.51467 9.31445 5.622 9.31912 5.72C9.32378 5.818 9.33078 5.91133 9.34012 6H8.78012C8.76612 5.832 8.75912 5.664 8.75912 5.496H8.74512C8.60512 5.71067 8.43945 5.86233 8.24812 5.951C8.05678 6.03967 7.83512 6.084 7.58312 6.084C7.42912 6.084 7.28212 6.063 7.14212 6.021C7.00212 5.979 6.87845 5.916 6.77112 5.832C6.66845 5.748 6.58678 5.64533 6.52612 5.524C6.46545 5.398 6.43512 5.25333 6.43512 5.09C6.43512 4.87533 6.48178 4.69567 6.57512 4.551C6.67312 4.40633 6.80378 4.28967 6.96712 4.201C7.13512 4.10767 7.32878 4.04233 7.54812 4.005C7.77212 3.963 8.01012 3.942 8.26212 3.942H8.72412V3.802C8.72412 3.718 8.70778 3.634 8.67512 3.55C8.64245 3.466 8.59345 3.39133 8.52812 3.326C8.46278 3.256 8.38112 3.20233 8.28312 3.165C8.18512 3.123 8.06845 3.102 7.93312 3.102C7.81178 3.102 7.70445 3.11367 7.61112 3.137C7.52245 3.16033 7.44078 3.19067 7.36612 3.228C7.29145 3.26067 7.22378 3.30033 7.16312 3.347C7.10245 3.39367 7.04412 3.438 6.98812 3.48L6.61012 3.088ZM8.38812 4.404C8.23878 4.404 8.08478 4.41333 7.92612 4.432C7.77212 4.446 7.62978 4.47633 7.49912 4.523C7.37312 4.56967 7.26812 4.635 7.18412 4.719C7.10478 4.803 7.06512 4.91033 7.06512 5.041C7.06512 5.23233 7.12812 5.37 7.25412 5.454C7.38478 5.538 7.55978 5.58 7.77912 5.58C7.95178 5.58 8.09878 5.552 8.22012 5.496C8.34145 5.43533 8.43945 5.35833 8.51412 5.265C8.58878 5.17167 8.64245 5.069 8.67512 4.957C8.70778 4.84033 8.72412 4.726 8.72412 4.614V4.404H8.38812ZM10.226 2.682H10.856V3.193H10.87C10.9493 3.01567 11.087 2.87333 11.283 2.766C11.479 2.654 11.7053 2.598 11.962 2.598C12.1207 2.598 12.2723 2.62367 12.417 2.675C12.5663 2.72167 12.6947 2.79633 12.802 2.899C12.914 3.00167 13.0027 3.13467 13.068 3.298C13.1333 3.45667 13.166 3.64567 13.166 3.865V6H12.536V4.04C12.536 3.886 12.515 3.75533 12.473 3.648C12.431 3.536 12.375 3.44733 12.305 3.382C12.235 3.312 12.1533 3.263 12.06 3.235C11.9713 3.20233 11.878 3.186 11.78 3.186C11.6493 3.186 11.528 3.207 11.416 3.249C11.304 3.291 11.206 3.35867 11.122 3.452C11.038 3.54067 10.9727 3.655 10.926 3.795C10.8793 3.935 10.856 4.10067 10.856 4.292V6H10.226V2.682ZM15.8936 3.228H14.9906V4.733C14.9906 4.82633 14.993 4.91967 14.9976 5.013C15.0023 5.10167 15.0186 5.18333 15.0466 5.258C15.0793 5.328 15.126 5.38633 15.1866 5.433C15.252 5.475 15.3453 5.496 15.4666 5.496C15.5413 5.496 15.6183 5.489 15.6976 5.475C15.777 5.461 15.8493 5.43533 15.9146 5.398V5.972C15.84 6.014 15.742 6.042 15.6206 6.056C15.504 6.07467 15.413 6.084 15.3476 6.084C15.105 6.084 14.916 6.05133 14.7806 5.986C14.65 5.916 14.552 5.82733 14.4866 5.72C14.426 5.61267 14.3886 5.49367 14.3746 5.363C14.3653 5.22767 14.3606 5.09233 14.3606 4.957V3.228H13.6326V2.682H14.3606V1.751H14.9906V2.682H15.8936V3.228ZM17.1825 4.572C17.1825 4.71667 17.2128 4.84967 17.2735 4.971C17.3388 5.08767 17.4228 5.188 17.5255 5.272C17.6281 5.356 17.7471 5.42133 17.8825 5.468C18.0178 5.51467 18.1578 5.538 18.3025 5.538C18.4985 5.538 18.6688 5.49367 18.8135 5.405C18.9581 5.31167 19.0911 5.19033 19.2125 5.041L19.6885 5.405C19.3385 5.85767 18.8485 6.084 18.2185 6.084C17.9571 6.084 17.7191 6.03967 17.5045 5.951C17.2945 5.86233 17.1148 5.741 16.9655 5.587C16.8208 5.42833 16.7088 5.244 16.6295 5.034C16.5501 4.81933 16.5105 4.58833 16.5105 4.341C16.5105 4.09367 16.5525 3.865 16.6365 3.655C16.7251 3.44033 16.8441 3.256 16.9935 3.102C17.1475 2.94333 17.3295 2.81967 17.5395 2.731C17.7495 2.64233 17.9781 2.598 18.2255 2.598C18.5195 2.598 18.7668 2.64933 18.9675 2.752C19.1728 2.85467 19.3408 2.99 19.4715 3.158C19.6021 3.32133 19.6955 3.508 19.7515 3.718C19.8121 3.92333 19.8425 4.13333 19.8425 4.348V4.572H17.1825ZM19.1705 4.068C19.1658 3.928 19.1425 3.79967 19.1005 3.683C19.0631 3.56633 19.0048 3.466 18.9255 3.382C18.8461 3.29333 18.7458 3.22567 18.6245 3.179C18.5078 3.12767 18.3701 3.102 18.2115 3.102C18.0575 3.102 17.9151 3.13233 17.7845 3.193C17.6585 3.249 17.5511 3.32367 17.4625 3.417C17.3738 3.51033 17.3038 3.61533 17.2525 3.732C17.2058 3.844 17.1825 3.956 17.1825 4.068H19.1705ZM20.5961 2.682H21.2261V3.193H21.2401C21.2821 3.10433 21.3381 3.025 21.4081 2.955C21.4781 2.88033 21.5551 2.81733 21.6391 2.766C21.7278 2.71467 21.8235 2.675 21.9261 2.647C22.0288 2.61433 22.1315 2.598 22.2341 2.598C22.3368 2.598 22.4301 2.612 22.5141 2.64L22.4861 3.319C22.4348 3.305 22.3835 3.29333 22.3321 3.284C22.2808 3.27467 22.2295 3.27 22.1781 3.27C21.8701 3.27 21.6345 3.35633 21.4711 3.529C21.3078 3.70167 21.2261 3.97 21.2261 4.334V6H20.5961V2.682Z" fill="white"/>
</svg>
