<svg width="46" height="8" viewBox="0 0 46 8" fill="none" xmlns="http://www.w3.org/2000/svg">
<path d="M0.68534 1.044H2.42834C2.74567 1.044 3.00701 1.08833 3.21234 1.177C3.41767 1.261 3.57867 1.37067 3.69534 1.506C3.81667 1.63667 3.90067 1.786 3.94734 1.954C3.99401 2.11733 4.01734 2.276 4.01734 2.43C4.01734 2.584 3.99401 2.745 3.94734 2.913C3.90067 3.07633 3.81667 3.22567 3.69534 3.361C3.57867 3.49167 3.41767 3.60133 3.21234 3.69C3.00701 3.774 2.74567 3.816 2.42834 3.816H1.35734V6H0.68534V1.044ZM1.35734 3.228H2.23934C2.37001 3.228 2.49834 3.21867 2.62434 3.2C2.75501 3.17667 2.86934 3.137 2.96734 3.081C3.07001 3.025 3.15167 2.94567 3.21234 2.843C3.27301 2.73567 3.30334 2.598 3.30334 2.43C3.30334 2.262 3.27301 2.12667 3.21234 2.024C3.15167 1.91667 3.07001 1.835 2.96734 1.779C2.86934 1.723 2.75501 1.68567 2.62434 1.667C2.49834 1.64367 2.37001 1.632 2.23934 1.632H1.35734V3.228ZM4.67375 2.682H5.30375V3.193H5.31775C5.35975 3.10433 5.41575 3.025 5.48575 2.955C5.55575 2.88033 5.63275 2.81733 5.71675 2.766C5.80542 2.71467 5.90109 2.675 6.00375 2.647C6.10642 2.61433 6.20909 2.598 6.31175 2.598C6.41442 2.598 6.50775 2.612 6.59175 2.64L6.56375 3.319C6.51242 3.305 6.46109 3.29333 6.40975 3.284C6.35842 3.27467 6.30709 3.27 6.25575 3.27C5.94775 3.27 5.71209 3.35633 5.54875 3.529C5.38542 3.70167 5.30375 3.97 5.30375 4.334V6H4.67375V2.682ZM7.65253 4.341C7.65253 4.509 7.67819 4.66533 7.72953 4.81C7.78086 4.95 7.85319 5.07133 7.94653 5.174C8.03986 5.272 8.15419 5.35133 8.28953 5.412C8.42486 5.468 8.57653 5.496 8.74453 5.496C8.91253 5.496 9.06419 5.468 9.19953 5.412C9.33486 5.35133 9.44919 5.272 9.54253 5.174C9.63586 5.07133 9.70819 4.95 9.75953 4.81C9.81086 4.66533 9.83653 4.509 9.83653 4.341C9.83653 4.173 9.81086 4.019 9.75953 3.879C9.70819 3.73433 9.63586 3.613 9.54253 3.515C9.44919 3.41233 9.33486 3.333 9.19953 3.277C9.06419 3.21633 8.91253 3.186 8.74453 3.186C8.57653 3.186 8.42486 3.21633 8.28953 3.277C8.15419 3.333 8.03986 3.41233 7.94653 3.515C7.85319 3.613 7.78086 3.73433 7.72953 3.879C7.67819 4.019 7.65253 4.173 7.65253 4.341ZM6.98053 4.341C6.98053 4.09833 7.02486 3.872 7.11353 3.662C7.20686 3.452 7.33286 3.26767 7.49153 3.109C7.65019 2.95033 7.83686 2.82667 8.05153 2.738C8.26619 2.64467 8.49719 2.598 8.74453 2.598C8.99186 2.598 9.22286 2.64467 9.43753 2.738C9.65219 2.82667 9.83886 2.95033 9.99753 3.109C10.1562 3.26767 10.2799 3.452 10.3685 3.662C10.4619 3.872 10.5085 4.09833 10.5085 4.341C10.5085 4.58367 10.4619 4.81233 10.3685 5.027C10.2799 5.237 10.1562 5.42133 9.99753 5.58C9.83886 5.734 9.65219 5.85767 9.43753 5.951C9.22286 6.03967 8.99186 6.084 8.74453 6.084C8.49719 6.084 8.26619 6.03967 8.05153 5.951C7.83686 5.85767 7.65019 5.734 7.49153 5.58C7.33286 5.42133 7.20686 5.237 7.11353 5.027C7.02486 4.81233 6.98053 4.58367 6.98053 4.341ZM11.5428 3.228H10.8288V2.682H11.5428V1.94C11.5428 1.49667 11.6268 1.16767 11.7948 0.953C11.9674 0.733667 12.2614 0.624 12.6768 0.624C12.7468 0.624 12.8191 0.626333 12.8938 0.631C12.9731 0.635666 13.0571 0.649666 13.1458 0.673L13.0758 1.233C13.0151 1.20967 12.9568 1.19333 12.9008 1.184C12.8448 1.17467 12.7841 1.17 12.7188 1.17C12.6021 1.17 12.5088 1.18867 12.4388 1.226C12.3688 1.25867 12.3128 1.30767 12.2708 1.373C12.2334 1.43833 12.2078 1.51767 12.1938 1.611C12.1844 1.69967 12.1798 1.80233 12.1798 1.919V2.682H12.9288V3.228H12.1728V6H11.5428V3.228ZM13.6778 2.682H14.3078V6H13.6778V2.682ZM13.5308 1.492C13.5308 1.366 13.5752 1.25867 13.6638 1.17C13.7572 1.07667 13.8668 1.03 13.9928 1.03C14.1188 1.03 14.2262 1.07667 14.3148 1.17C14.4082 1.25867 14.4548 1.366 14.4548 1.492C14.4548 1.618 14.4082 1.72767 14.3148 1.821C14.2262 1.90967 14.1188 1.954 13.9928 1.954C13.8668 1.954 13.7572 1.90967 13.6638 1.821C13.5752 1.72767 13.5308 1.618 13.5308 1.492ZM15.3595 0.708H15.9895V6H15.3595V0.708ZM17.4681 4.572C17.4681 4.71667 17.4984 4.84967 17.5591 4.971C17.6244 5.08767 17.7084 5.188 17.8111 5.272C17.9138 5.356 18.0328 5.42133 18.1681 5.468C18.3034 5.51467 18.4434 5.538 18.5881 5.538C18.7841 5.538 18.9544 5.49367 19.0991 5.405C19.2438 5.31167 19.3768 5.19033 19.4981 5.041L19.9741 5.405C19.6241 5.85767 19.1341 6.084 18.5041 6.084C18.2428 6.084 18.0048 6.03967 17.7901 5.951C17.5801 5.86233 17.4004 5.741 17.2511 5.587C17.1064 5.42833 16.9944 5.244 16.9151 5.034C16.8358 4.81933 16.7961 4.58833 16.7961 4.341C16.7961 4.09367 16.8381 3.865 16.9221 3.655C17.0108 3.44033 17.1298 3.256 17.2791 3.102C17.4331 2.94333 17.6151 2.81967 17.8251 2.731C18.0351 2.64233 18.2638 2.598 18.5111 2.598C18.8051 2.598 19.0524 2.64933 19.2531 2.752C19.4584 2.85467 19.6264 2.99 19.7571 3.158C19.8878 3.32133 19.9811 3.508 20.0371 3.718C20.0978 3.92333 20.1281 4.13333 20.1281 4.348V4.572H17.4681ZM19.4561 4.068C19.4514 3.928 19.4281 3.79967 19.3861 3.683C19.3488 3.56633 19.2904 3.466 19.2111 3.382C19.1318 3.29333 19.0314 3.22567 18.9101 3.179C18.7934 3.12767 18.6558 3.102 18.4971 3.102C18.3431 3.102 18.2008 3.13233 18.0701 3.193C17.9441 3.249 17.8368 3.32367 17.7481 3.417C17.6594 3.51033 17.5894 3.61533 17.5381 3.732C17.4914 3.844 17.4681 3.956 17.4681 4.068H19.4561ZM23.138 4.964C23.2593 5.146 23.4133 5.28133 23.6 5.37C23.7913 5.454 23.9873 5.496 24.188 5.496C24.3 5.496 24.4143 5.47967 24.531 5.447C24.6477 5.40967 24.7527 5.356 24.846 5.286C24.944 5.216 25.0233 5.12967 25.084 5.027C25.1447 4.92433 25.175 4.80533 25.175 4.67C25.175 4.47867 25.1143 4.334 24.993 4.236C24.8717 4.13333 24.72 4.04933 24.538 3.984C24.3607 3.914 24.1647 3.84867 23.95 3.788C23.74 3.72267 23.544 3.634 23.362 3.522C23.1847 3.41 23.0353 3.26067 22.914 3.074C22.7927 2.88267 22.732 2.626 22.732 2.304C22.732 2.15933 22.7623 2.00533 22.823 1.842C22.8883 1.67867 22.9887 1.52933 23.124 1.394C23.2593 1.25867 23.432 1.14667 23.642 1.058C23.8567 0.964667 24.1133 0.918 24.412 0.918C24.6827 0.918 24.9417 0.955333 25.189 1.03C25.4363 1.10467 25.6533 1.25633 25.84 1.485L25.294 1.982C25.21 1.85133 25.091 1.74633 24.937 1.667C24.783 1.58767 24.608 1.548 24.412 1.548C24.2253 1.548 24.069 1.57367 23.943 1.625C23.8217 1.67167 23.7237 1.73467 23.649 1.814C23.5743 1.88867 23.5207 1.97033 23.488 2.059C23.46 2.14767 23.446 2.22933 23.446 2.304C23.446 2.514 23.5067 2.675 23.628 2.787C23.7493 2.899 23.8987 2.99 24.076 3.06C24.258 3.13 24.454 3.193 24.664 3.249C24.8787 3.305 25.0747 3.38433 25.252 3.487C25.434 3.585 25.5857 3.72033 25.707 3.893C25.8283 4.061 25.889 4.29433 25.889 4.593C25.889 4.831 25.8423 5.04567 25.749 5.237C25.6603 5.42833 25.539 5.58933 25.385 5.72C25.231 5.85067 25.049 5.951 24.839 6.021C24.629 6.091 24.405 6.126 24.167 6.126C23.8497 6.126 23.5487 6.07 23.264 5.958C22.9793 5.846 22.753 5.67333 22.585 5.44L23.138 4.964ZM28.4977 3.228H27.5947V4.733C27.5947 4.82633 27.597 4.91967 27.6017 5.013C27.6063 5.10167 27.6227 5.18333 27.6507 5.258C27.6833 5.328 27.73 5.38633 27.7907 5.433C27.856 5.475 27.9493 5.496 28.0707 5.496C28.1453 5.496 28.2223 5.489 28.3017 5.475C28.381 5.461 28.4533 5.43533 28.5187 5.398V5.972C28.444 6.014 28.346 6.042 28.2247 6.056C28.108 6.07467 28.017 6.084 27.9517 6.084C27.709 6.084 27.52 6.05133 27.3847 5.986C27.254 5.916 27.156 5.82733 27.0907 5.72C27.03 5.61267 26.9927 5.49367 26.9787 5.363C26.9693 5.22767 26.9647 5.09233 26.9647 4.957V3.228H26.2367V2.682H26.9647V1.751H27.5947V2.682H28.4977V3.228ZM29.3105 2.682H29.9405V3.193H29.9545C29.9965 3.10433 30.0525 3.025 30.1225 2.955C30.1925 2.88033 30.2695 2.81733 30.3535 2.766C30.4421 2.71467 30.5378 2.675 30.6405 2.647C30.7431 2.61433 30.8458 2.598 30.9485 2.598C31.0511 2.598 31.1445 2.612 31.2285 2.64L31.2005 3.319C31.1491 3.305 31.0978 3.29333 31.0465 3.284C30.9951 3.27467 30.9438 3.27 30.8925 3.27C30.5845 3.27 30.3488 3.35633 30.1855 3.529C30.0221 3.70167 29.9405 3.97 29.9405 4.334V6H29.3105V2.682ZM32.2542 4.572C32.2542 4.71667 32.2846 4.84967 32.3452 4.971C32.4106 5.08767 32.4946 5.188 32.5972 5.272C32.6999 5.356 32.8189 5.42133 32.9542 5.468C33.0896 5.51467 33.2296 5.538 33.3742 5.538C33.5702 5.538 33.7406 5.49367 33.8852 5.405C34.0299 5.31167 34.1629 5.19033 34.2842 5.041L34.7602 5.405C34.4102 5.85767 33.9202 6.084 33.2902 6.084C33.0289 6.084 32.7909 6.03967 32.5762 5.951C32.3662 5.86233 32.1866 5.741 32.0372 5.587C31.8926 5.42833 31.7806 5.244 31.7012 5.034C31.6219 4.81933 31.5822 4.58833 31.5822 4.341C31.5822 4.09367 31.6242 3.865 31.7082 3.655C31.7969 3.44033 31.9159 3.256 32.0652 3.102C32.2192 2.94333 32.4012 2.81967 32.6112 2.731C32.8212 2.64233 33.0499 2.598 33.2972 2.598C33.5912 2.598 33.8386 2.64933 34.0392 2.752C34.2446 2.85467 34.4126 2.99 34.5432 3.158C34.6739 3.32133 34.7672 3.508 34.8232 3.718C34.8839 3.92333 34.9142 4.13333 34.9142 4.348V4.572H32.2542ZM34.2422 4.068C34.2376 3.928 34.2142 3.79967 34.1722 3.683C34.1349 3.56633 34.0766 3.466 33.9972 3.382C33.9179 3.29333 33.8176 3.22567 33.6962 3.179C33.5796 3.12767 33.4419 3.102 33.2832 3.102C33.1292 3.102 32.9869 3.13233 32.8562 3.193C32.7302 3.249 32.6229 3.32367 32.5342 3.417C32.4456 3.51033 32.3756 3.61533 32.3242 3.732C32.2776 3.844 32.2542 3.956 32.2542 4.068H34.2422ZM38.9929 5.972C38.9929 6.224 38.9486 6.45267 38.8599 6.658C38.7759 6.868 38.6546 7.04767 38.4959 7.197C38.3372 7.351 38.1459 7.47 37.9219 7.554C37.6979 7.638 37.4506 7.68 37.1799 7.68C36.8626 7.68 36.5709 7.63567 36.3049 7.547C36.0436 7.45833 35.7939 7.30433 35.5559 7.085L35.9829 6.553C36.1462 6.73033 36.3236 6.86333 36.5149 6.952C36.7062 7.04533 36.9232 7.092 37.1659 7.092C37.3992 7.092 37.5929 7.057 37.7469 6.987C37.9009 6.92167 38.0222 6.83533 38.1109 6.728C38.2042 6.62067 38.2696 6.497 38.3069 6.357C38.3442 6.22167 38.3629 6.084 38.3629 5.944V5.454H38.3419C38.2206 5.65467 38.0549 5.804 37.8449 5.902C37.6396 5.99533 37.4226 6.042 37.1939 6.042C36.9512 6.042 36.7249 6 36.5149 5.916C36.3096 5.82733 36.1322 5.70833 35.9829 5.559C35.8336 5.405 35.7169 5.22533 35.6329 5.02C35.5489 4.81 35.5069 4.58367 35.5069 4.341C35.5069 4.09833 35.5466 3.872 35.6259 3.662C35.7052 3.44733 35.8172 3.26067 35.9619 3.102C36.1112 2.94333 36.2886 2.81967 36.4939 2.731C36.7039 2.64233 36.9372 2.598 37.1939 2.598C37.4179 2.598 37.6349 2.647 37.8449 2.745C38.0596 2.843 38.2276 2.98067 38.3489 3.158H38.3629V2.682H38.9929V5.972ZM37.2709 3.186C37.1029 3.186 36.9512 3.21633 36.8159 3.277C36.6806 3.333 36.5662 3.41233 36.4729 3.515C36.3796 3.613 36.3072 3.73433 36.2559 3.879C36.2046 4.019 36.1789 4.173 36.1789 4.341C36.1789 4.677 36.2769 4.94767 36.4729 5.153C36.6689 5.35367 36.9349 5.454 37.2709 5.454C37.6069 5.454 37.8729 5.35367 38.0689 5.153C38.2649 4.94767 38.3629 4.677 38.3629 4.341C38.3629 4.173 38.3372 4.019 38.2859 3.879C38.2346 3.73433 38.1622 3.613 38.0689 3.515C37.9756 3.41233 37.8612 3.333 37.7259 3.277C37.5906 3.21633 37.4389 3.186 37.2709 3.186ZM41.7252 3.228H40.8222V4.733C40.8222 4.82633 40.8245 4.91967 40.8292 5.013C40.8339 5.10167 40.8502 5.18333 40.8782 5.258C40.9109 5.328 40.9575 5.38633 41.0182 5.433C41.0835 5.475 41.1769 5.496 41.2982 5.496C41.3729 5.496 41.4499 5.489 41.5292 5.475C41.6085 5.461 41.6809 5.43533 41.7462 5.398V5.972C41.6715 6.014 41.5735 6.042 41.4522 6.056C41.3355 6.07467 41.2445 6.084 41.1792 6.084C40.9365 6.084 40.7475 6.05133 40.6122 5.986C40.4815 5.916 40.3835 5.82733 40.3182 5.72C40.2575 5.61267 40.2202 5.49367 40.2062 5.363C40.1969 5.22767 40.1922 5.09233 40.1922 4.957V3.228H39.4642V2.682H40.1922V1.751H40.8222V2.682H41.7252V3.228ZM42.538 0.708H43.168V3.193H43.182C43.2613 3.01567 43.399 2.87333 43.595 2.766C43.791 2.654 44.0173 2.598 44.274 2.598C44.4327 2.598 44.5843 2.62367 44.729 2.675C44.8783 2.72167 45.0067 2.79633 45.114 2.899C45.226 3.00167 45.3147 3.13467 45.38 3.298C45.4453 3.45667 45.478 3.64567 45.478 3.865V6H44.848V4.04C44.848 3.886 44.827 3.75533 44.785 3.648C44.743 3.536 44.687 3.44733 44.617 3.382C44.547 3.312 44.4653 3.263 44.372 3.235C44.2833 3.20233 44.19 3.186 44.092 3.186C43.9613 3.186 43.84 3.207 43.728 3.249C43.616 3.291 43.518 3.35867 43.434 3.452C43.35 3.54067 43.2847 3.655 43.238 3.795C43.1913 3.935 43.168 4.10067 43.168 4.292V6H42.538V0.708Z" fill="white"/>
</svg>
