<svg width="24" height="24" viewBox="0 0 24 24" fill="none" xmlns="http://www.w3.org/2000/svg">
<path d="M8.45438 13.0909C9.80996 13.0909 10.9089 14.1898 10.9089 15.5455V21.5455C10.9089 22.9011 9.80996 24 8.45438 24H2.4545C1.09892 24 0 22.9011 0 21.5455V15.5455C0 14.1898 1.09892 13.0909 2.4545 13.0909H8.45438ZM16.7284 13.0909V16.7273H20.3637V20.3636L16.7284 20.363V23.9994H13.0921V20.363L16.7274 20.3636L16.7284 16.7273H13.0921V13.0909H16.7284ZM24 20.363V23.9994H20.3637V20.3636L24 20.363ZM8.45438 14.7273H2.4545C2.00264 14.7273 1.63633 15.0936 1.63633 15.5455V21.5455C1.63633 21.9973 2.00264 22.3636 2.4545 22.3636H8.45438C8.90624 22.3636 9.27254 21.9973 9.27254 21.5455V15.5455C9.27254 15.0936 8.90624 14.7273 8.45438 14.7273ZM7.09077 16.9091V20.1818H3.81811V16.9091H7.09077ZM24 13.0909V16.7273H20.3637V13.0909H24ZM8.45438 0C9.80996 0 10.9089 1.09894 10.9089 2.45455V8.45455C10.9089 9.81015 9.80996 10.9091 8.45438 10.9091H2.4545C1.09892 10.9091 0 9.81015 0 8.45455V2.45455C0 1.09894 1.09892 0 2.4545 0H8.45438ZM21.545 0C22.9006 0 23.9995 1.09894 23.9995 2.45455V8.45455C23.9995 9.81015 22.9006 10.9091 21.545 10.9091H15.5451C14.1896 10.9091 13.0906 9.81015 13.0906 8.45455V2.45455C13.0906 1.09894 14.1896 0 15.5451 0H21.545ZM8.45438 1.63636H2.4545C2.00264 1.63636 1.63633 2.00268 1.63633 2.45455V8.45455C1.63633 8.90641 2.00264 9.27273 2.4545 9.27273H8.45438C8.90624 9.27273 9.27254 8.90641 9.27254 8.45455V2.45455C9.27254 2.00268 8.90624 1.63636 8.45438 1.63636ZM21.545 1.63636H15.5451C15.0933 1.63636 14.727 2.00268 14.727 2.45455V8.45455C14.727 8.90641 15.0933 9.27273 15.5451 9.27273H21.545C21.9969 9.27273 22.3632 8.90641 22.3632 8.45455V2.45455C22.3632 2.00268 21.9969 1.63636 21.545 1.63636ZM7.09077 3.81818V7.09091H3.81811V3.81818H7.09077ZM20.1814 3.81818V7.09091H16.9088V3.81818H20.1814Z" fill="white"/>
</svg>
