<svg width="21" height="24" viewBox="0 0 21 24" fill="none" xmlns="http://www.w3.org/2000/svg">
<path d="M19.3583 16.027C18.7132 17.7753 17.7376 19.2955 16.4583 20.5448C15.002 21.9668 13.0952 23.0968 10.7906 23.9028C10.715 23.9291 10.6361 23.9508 10.5568 23.9667C10.452 23.9874 10.3455 23.9985 10.2398 24H10.2191C10.1065 24 9.99335 23.9887 9.88111 23.9667C9.80182 23.9508 9.724 23.9291 9.64874 23.9033C7.34143 23.0986 5.43219 21.9692 3.97448 20.5472C2.69458 19.2979 1.71917 17.7786 1.07501 16.0303C-0.0963202 12.8516 -0.0296697 9.34991 0.0239802 6.53594L0.0248957 6.49273C0.035699 6.26037 0.042657 6.01629 0.0465022 5.74676C0.0660945 4.42345 1.11822 3.32866 2.44171 3.25487C5.20111 3.10088 7.33575 2.20092 9.15967 0.423144L9.1756 0.408496C9.47846 0.130725 9.86005 -0.00550601 10.2398 0.000170293C10.606 0.00493105 10.9708 0.140978 11.2628 0.408496L11.2784 0.423144C13.1027 2.20092 15.2373 3.10088 17.9967 3.25487C19.3202 3.32866 20.3723 4.42345 20.3919 5.74676C20.3958 6.01812 20.4027 6.26183 20.4135 6.49273L20.4141 6.51104C20.4675 9.33032 20.5338 12.839 19.3583 16.027Z" fill="#00DD80"/>
<path d="M19.3583 16.0269C18.7133 17.7752 17.7377 19.2953 16.4583 20.5446C15.0021 21.9666 13.0952 23.0966 10.7906 23.9026C10.715 23.929 10.6361 23.9506 10.5568 23.9665C10.4521 23.9872 10.3455 23.9984 10.2399 23.9998V0C10.6061 0.00476076 10.9708 0.140808 11.2629 0.408326L11.2784 0.422974C13.1027 2.20075 15.2374 3.10071 17.9968 3.2547C19.3203 3.32849 20.3724 4.42328 20.392 5.74659C20.3958 6.01795 20.4028 6.26166 20.4136 6.49256L20.4141 6.51087C20.4676 9.33015 20.5339 12.8388 19.3583 16.0269Z" fill="#00AA63"/>
<path d="M16.2 11.9999C16.2 15.2908 13.528 17.9697 10.2398 17.9814H10.2187C6.92078 17.9814 4.23718 15.298 4.23718 11.9999C4.23718 8.70197 6.92078 6.01855 10.2187 6.01855H10.2398C13.528 6.03027 16.2 8.70911 16.2 11.9999Z" fill="white"/>
<path d="M16.2001 11.9999C16.2001 15.2908 13.5281 17.9697 10.2399 17.9814V6.01855C13.5281 6.03027 16.2001 8.70911 16.2001 11.9999Z" fill="#E1EBF0"/>
<path d="M12.9336 11.1387L10.2398 13.8329L9.65769 14.415C9.52017 14.5525 9.33982 14.6211 9.15964 14.6211C8.97928 14.6211 8.7991 14.5525 8.66141 14.415L7.40988 13.1629C7.13486 12.8879 7.13486 12.4424 7.40988 12.1672C7.68454 11.8921 8.13059 11.8921 8.40561 12.1672L9.15964 12.9212L11.9379 10.1429C12.2129 9.86772 12.659 9.86772 12.9336 10.1429C13.2087 10.418 13.2087 10.864 12.9336 11.1387Z" fill="#B4D2D7"/>
<path d="M12.9337 11.1387L10.2399 13.8329V11.8409L11.938 10.1429C12.213 9.86772 12.6591 9.86772 12.9337 10.1429C13.2087 10.418 13.2087 10.864 12.9337 11.1387Z" fill="#6FA5AA"/>
</svg>
