<svg width="11" height="10" viewBox="0 0 11 10" fill="none" xmlns="http://www.w3.org/2000/svg">
<path d="M8.02895 9.99871C7.91449 9.99871 7.79925 9.97131 7.69407 9.91585L5.2355 8.6232L2.7841 9.91585C2.54214 10.044 2.24682 10.0217 2.02508 9.86182C1.80323 9.70052 1.69242 9.42685 1.73849 9.15683L2.20727 6.42028L0.218242 4.48738C0.0216926 4.2958 -0.0496794 4.00987 0.035282 3.74924C0.119581 3.4885 0.344966 3.29847 0.616423 3.25814L3.36016 2.85919L4.59017 0.368903C4.8329 -0.122968 5.63865 -0.122968 5.88138 0.368903L7.11139 2.85919L9.86164 3.25814C10.1331 3.2977 10.3586 3.48784 10.4436 3.74924C10.5285 4.00998 10.4573 4.29657 10.2606 4.48738L8.27157 6.42028L8.74035 9.15683C8.78642 9.42685 8.6755 9.69986 8.45376 9.86182C8.32703 9.95187 8.17799 9.99871 8.02895 9.99871ZM5.23483 7.08925C5.35007 7.08925 5.4653 7.11665 5.56971 7.17212L7.07261 7.96207L6.78601 6.28991C6.74569 6.0559 6.82413 5.81748 6.99416 5.65187L8.20616 4.47368L6.52826 4.23029C6.29348 4.19648 6.09108 4.04876 5.98601 3.83641L5.23494 2.31407L4.48388 3.83641C4.3787 4.04887 4.17641 4.19648 3.94229 4.23029L2.2708 4.47302L3.48357 5.65043C3.65349 5.81605 3.73204 6.05513 3.69172 6.28925L3.40512 7.95931L4.90018 7.17145C5.00437 7.11665 5.1196 7.08925 5.23483 7.08925Z" fill="#F4E319"/>
</svg>
