<svg width="12" height="10" viewBox="0 0 12 10" fill="none" xmlns="http://www.w3.org/2000/svg">
<path d="M3.01469 9.9986C2.86565 9.9986 2.71728 9.95253 2.59199 9.86182C2.36948 9.70052 2.25855 9.42762 2.30539 9.15683L2.77351 6.42028L0.783712 4.48738C0.587826 4.2958 0.516564 4.00987 0.600752 3.74924C0.68494 3.48861 0.911098 3.29847 1.18267 3.25814L3.9264 2.85919L5.15563 0.368903C5.39759 -0.122968 6.20489 -0.122968 6.44685 0.368903L7.67686 2.85985L10.4271 3.25881C10.6986 3.29847 10.9241 3.4885 11.009 3.7499C11.0933 4.01064 11.0227 4.29724 10.8261 4.48804L8.83626 6.42094L9.30505 9.1575C9.35112 9.42752 9.24019 9.70052 9.01911 9.86182C8.79583 10.0239 8.50283 10.0448 8.26076 9.91651L5.80152 8.62386L3.35089 9.91651C3.24516 9.9712 3.12993 9.9986 3.01469 9.9986ZM5.80163 7.08914C5.91686 7.08914 6.03132 7.11654 6.1365 7.172L7.64018 7.96196L7.35424 6.2898C7.31392 6.05579 7.3917 5.81737 7.56162 5.65176L8.77439 4.47357L7.09649 4.23017C6.86171 4.19637 6.65931 4.04865 6.55424 3.8363L5.8024 2.31396L5.05134 3.83564C4.94616 4.0481 4.74386 4.1957 4.50909 4.22951L2.83836 4.47224L4.05114 5.65043C4.22106 5.81538 4.29884 6.05447 4.25851 6.28847L3.97336 7.95853L5.46697 7.17068C5.5705 7.11654 5.68573 7.08914 5.80163 7.08914Z" fill="#F4E319"/>
</svg>
