<svg width="25" height="7" viewBox="0 0 25 7" fill="none" xmlns="http://www.w3.org/2000/svg">
<path d="M0.272941 1.044H1.04994L2.50594 5.076H2.51994L4.03194 1.044H4.76694L2.81394 6H2.18394L0.272941 1.044ZM5.29331 4.572C5.29331 4.71667 5.32364 4.84967 5.38431 4.971C5.44964 5.08767 5.53364 5.188 5.63631 5.272C5.73898 5.356 5.85798 5.42133 5.99331 5.468C6.12864 5.51467 6.26864 5.538 6.41331 5.538C6.60931 5.538 6.77964 5.49367 6.92431 5.405C7.06898 5.31167 7.20198 5.19033 7.32331 5.041L7.79931 5.405C7.44931 5.85767 6.95931 6.084 6.32931 6.084C6.06798 6.084 5.82998 6.03967 5.61531 5.951C5.40531 5.86233 5.22564 5.741 5.07631 5.587C4.93164 5.42833 4.81964 5.244 4.74031 5.034C4.66098 4.81933 4.62131 4.58833 4.62131 4.341C4.62131 4.09367 4.66331 3.865 4.74731 3.655C4.83598 3.44033 4.95498 3.256 5.10431 3.102C5.25831 2.94333 5.44031 2.81967 5.65031 2.731C5.86031 2.64233 6.08898 2.598 6.33631 2.598C6.63031 2.598 6.87764 2.64933 7.07831 2.752C7.28364 2.85467 7.45164 2.99 7.58231 3.158C7.71298 3.32133 7.80631 3.508 7.86231 3.718C7.92298 3.92333 7.95331 4.13333 7.95331 4.348V4.572H5.29331ZM7.28131 4.068C7.27664 3.928 7.25331 3.79967 7.21131 3.683C7.17398 3.56633 7.11564 3.466 7.03631 3.382C6.95698 3.29333 6.85664 3.22567 6.73531 3.179C6.61864 3.12767 6.48098 3.102 6.32231 3.102C6.16831 3.102 6.02598 3.13233 5.89531 3.193C5.76931 3.249 5.66198 3.32367 5.57331 3.417C5.48464 3.51033 5.41464 3.61533 5.36331 3.732C5.31664 3.844 5.29331 3.956 5.29331 4.068H7.28131ZM8.70696 2.682H9.33696V3.193H9.35096C9.39296 3.10433 9.44896 3.025 9.51896 2.955C9.58896 2.88033 9.66596 2.81733 9.74996 2.766C9.83862 2.71467 9.93429 2.675 10.037 2.647C10.1396 2.61433 10.2423 2.598 10.345 2.598C10.4476 2.598 10.541 2.612 10.625 2.64L10.597 3.319C10.5456 3.305 10.4943 3.29333 10.443 3.284C10.3916 3.27467 10.3403 3.27 10.289 3.27C9.98096 3.27 9.74529 3.35633 9.58196 3.529C9.41862 3.70167 9.33696 3.97 9.33696 4.334V6H8.70696V2.682ZM11.3468 2.682H11.9768V6H11.3468V2.682ZM11.1998 1.492C11.1998 1.366 11.2441 1.25867 11.3328 1.17C11.4261 1.07667 11.5358 1.03 11.6618 1.03C11.7878 1.03 11.8951 1.07667 11.9838 1.17C12.0771 1.25867 12.1238 1.366 12.1238 1.492C12.1238 1.618 12.0771 1.72767 11.9838 1.821C11.8951 1.90967 11.7878 1.954 11.6618 1.954C11.5358 1.954 11.4261 1.90967 11.3328 1.821C11.2441 1.72767 11.1998 1.618 11.1998 1.492ZM13.2244 3.228H12.5104V2.682H13.2244V1.94C13.2244 1.49667 13.3084 1.16767 13.4764 0.953C13.6491 0.733667 13.9431 0.624 14.3584 0.624C14.4284 0.624 14.5008 0.626333 14.5754 0.631C14.6548 0.635666 14.7388 0.649666 14.8274 0.673L14.7574 1.233C14.6968 1.20967 14.6384 1.19333 14.5824 1.184C14.5264 1.17467 14.4658 1.17 14.4004 1.17C14.2838 1.17 14.1904 1.18867 14.1204 1.226C14.0504 1.25867 13.9944 1.30767 13.9524 1.373C13.9151 1.43833 13.8894 1.51767 13.8754 1.611C13.8661 1.69967 13.8614 1.80233 13.8614 1.919V2.682H14.6104V3.228H13.8544V6H13.2244V3.228ZM15.3595 2.682H15.9895V6H15.3595V2.682ZM15.2125 1.492C15.2125 1.366 15.2568 1.25867 15.3455 1.17C15.4388 1.07667 15.5485 1.03 15.6745 1.03C15.8005 1.03 15.9078 1.07667 15.9965 1.17C16.0898 1.25867 16.1365 1.366 16.1365 1.492C16.1365 1.618 16.0898 1.72767 15.9965 1.821C15.9078 1.90967 15.8005 1.954 15.6745 1.954C15.5485 1.954 15.4388 1.90967 15.3455 1.821C15.2568 1.72767 15.2125 1.618 15.2125 1.492ZM17.4681 4.572C17.4681 4.71667 17.4984 4.84967 17.5591 4.971C17.6244 5.08767 17.7084 5.188 17.8111 5.272C17.9138 5.356 18.0328 5.42133 18.1681 5.468C18.3034 5.51467 18.4434 5.538 18.5881 5.538C18.7841 5.538 18.9544 5.49367 19.0991 5.405C19.2438 5.31167 19.3768 5.19033 19.4981 5.041L19.9741 5.405C19.6241 5.85767 19.1341 6.084 18.5041 6.084C18.2428 6.084 18.0048 6.03967 17.7901 5.951C17.5801 5.86233 17.4004 5.741 17.2511 5.587C17.1064 5.42833 16.9944 5.244 16.9151 5.034C16.8358 4.81933 16.7961 4.58833 16.7961 4.341C16.7961 4.09367 16.8381 3.865 16.9221 3.655C17.0108 3.44033 17.1298 3.256 17.2791 3.102C17.4331 2.94333 17.6151 2.81967 17.8251 2.731C18.0351 2.64233 18.2638 2.598 18.5111 2.598C18.8051 2.598 19.0524 2.64933 19.2531 2.752C19.4584 2.85467 19.6264 2.99 19.7571 3.158C19.8878 3.32133 19.9811 3.508 20.0371 3.718C20.0978 3.92333 20.1281 4.13333 20.1281 4.348V4.572H17.4681ZM19.4561 4.068C19.4514 3.928 19.4281 3.79967 19.3861 3.683C19.3488 3.56633 19.2904 3.466 19.2111 3.382C19.1318 3.29333 19.0314 3.22567 18.9101 3.179C18.7934 3.12767 18.6558 3.102 18.4971 3.102C18.3431 3.102 18.2008 3.13233 18.0701 3.193C17.9441 3.249 17.8368 3.32367 17.7481 3.417C17.6594 3.51033 17.5894 3.61533 17.5381 3.732C17.4914 3.844 17.4681 3.956 17.4681 4.068H19.4561ZM24.2068 6H23.5768V5.524H23.5628C23.4414 5.70133 23.2734 5.839 23.0588 5.937C22.8488 6.035 22.6318 6.084 22.4078 6.084C22.1511 6.084 21.9178 6.03967 21.7078 5.951C21.5024 5.86233 21.3251 5.73867 21.1758 5.58C21.0311 5.42133 20.9191 5.237 20.8398 5.027C20.7604 4.817 20.7208 4.58833 20.7208 4.341C20.7208 4.09367 20.7604 3.865 20.8398 3.655C20.9191 3.44033 21.0311 3.256 21.1758 3.102C21.3251 2.94333 21.5024 2.81967 21.7078 2.731C21.9178 2.64233 22.1511 2.598 22.4078 2.598C22.6458 2.598 22.8698 2.64933 23.0798 2.752C23.2898 2.85 23.4508 2.98533 23.5628 3.158H23.5768V0.708H24.2068V6ZM22.4848 5.496C22.6528 5.496 22.8044 5.468 22.9398 5.412C23.0751 5.35133 23.1894 5.272 23.2828 5.174C23.3761 5.07133 23.4484 4.95 23.4998 4.81C23.5511 4.66533 23.5768 4.509 23.5768 4.341C23.5768 4.173 23.5511 4.019 23.4998 3.879C23.4484 3.73433 23.3761 3.613 23.2828 3.515C23.1894 3.41233 23.0751 3.333 22.9398 3.277C22.8044 3.21633 22.6528 3.186 22.4848 3.186C22.3168 3.186 22.1651 3.21633 22.0298 3.277C21.8944 3.333 21.7801 3.41233 21.6868 3.515C21.5934 3.613 21.5211 3.73433 21.4698 3.879C21.4184 4.019 21.3928 4.173 21.3928 4.341C21.3928 4.509 21.4184 4.66533 21.4698 4.81C21.5211 4.95 21.5934 5.07133 21.6868 5.174C21.7801 5.272 21.8944 5.35133 22.0298 5.412C22.1651 5.468 22.3168 5.496 22.4848 5.496Z" fill="white"/>
</svg>
